<svg width="152" height="151" viewBox="0 0 152 151" fill="none" xmlns="http://www.w3.org/2000/svg">
<path d="M53.1469 52.7972H99.3846V98.7308H53.1469V52.7972Z" fill="#2D2650"/>
<path fill-rule="evenodd" clip-rule="evenodd" d="M152 75.5C152 117.198 117.974 151 76 151C34.0264 151 0 117.198 0 75.5C0 33.8025 34.0264 0 76 0C117.974 0 152 33.8025 152 75.5ZM76 129.353C105.646 129.353 129.678 105.479 129.678 76.028C129.678 46.5773 105.646 22.7028 76 22.7028C46.3543 22.7028 22.3217 46.5773 22.3217 76.028C22.3217 105.479 46.3543 129.353 76 129.353Z" fill="#DFDC01"/>
</svg>
