<svg width="30" height="45" viewBox="0 0 30 45" fill="none" xmlns="http://www.w3.org/2000/svg">
<path d="M14 29L14 31L12 31L12 33L10 33L10 35L8 35L8 37L6 37L6 39L4 39L4 41L2 41L2 43L-6.11959e-07 43L-6.99382e-07 45L4.5 45L5.5 45L5.5 43L7.5 43L7.5 41L9.5 41L9.5 39L11.5 39L11.5 37L13.5 37L13.5 35L16.5 35L16.5 37L18.5 37L18.5 39L20.5 39L20.5 41L22.5 41L22.5 43L24.5 43L24.5 45L26.5 45L30 45L30 43L28 43L28 41L26 41L26 39L24 39L24 37L22 37L22 35L20 35L20 33L18 33L18 31L16 31L16 29L14 29Z" fill="#DFDC01"/>
<path d="M14 15L14 17L12 17L12 19L10 19L10 21L8 21L8 23L6 23L6 25L4 25L4 27L2 27L2 29L-6.11959e-07 29L-6.99382e-07 31L4.5 31L5.5 31L5.5 29L7.5 29L7.5 27L9.5 27L9.5 25L11.5 25L11.5 23L13.5 23L13.5 21L16.5 21L16.5 23L18.5 23L18.5 25L20.5 25L20.5 27L22.5 27L22.5 29L24.5 29L24.5 31L26.5 31L30 31L30 29L28 29L28 27L26 27L26 25L24 25L24 23L22 23L22 21L20 21L20 19L18 19L18 17L16 17L16 15L14 15Z" fill="#DFDC01"/>
<path d="M14 -6.99382e-07L14 2L12 2L12 4L10 4L10 6L8 6L8 8L6 8L6 10L4 10L4 12L2 12L2 14L-6.11959e-07 14L-6.99382e-07 16L4.5 16L5.5 16L5.5 14L7.5 14L7.5 12L9.5 12L9.5 10L11.5 10L11.5 8L13.5 8L13.5 6L16.5 6L16.5 8L18.5 8L18.5 10L20.5 10L20.5 12L22.5 12L22.5 14L24.5 14L24.5 16L26.5 16L30 16L30 14L28 14L28 12L26 12L26 10L24 10L24 8L22 8L22 6L20 6L20 4L18 4L18 2L16 2L16 -6.11959e-07L14 -6.99382e-07Z" fill="#DFDC01"/>
</svg>
