<?xml version="1.0" standalone="no"?>
  <!DOCTYPE svg PUBLIC "-//W3C//DTD SVG 1.1//EN" "http://www.w3.org/Graphics/SVG/1.1/DTD/svg11.dtd" >
  <svg>
  <metadata>
  Created by font-carrier
  </metadata>
  <defs>
  <font id="Eboy-EXTAlpha" horiz-adv-x="1500" vert-adv-y="1500" >
    <font-face
      
      font-family="Eboy EXTAlpha"
      
      font-weight="400"
      
      font-stretch="normal"
      
      units-per-em="1000"
      
      ascent="1000"
      
      descent="-125"
      
    />
      <missing-glyph />

      

      
      <glyph glyph-name="uni21" unicode="&#x21;" d="M125 250L125 625L0 625L0 250ZM125 0L125 125L0 125L0 0Z"  horiz-adv-x="250" vert-adv-y="1000"  />

      
      <glyph glyph-name="uni22" unicode="&#x22;" d="M375 375L375 625L250 625L250 375ZM125 375L125 625L0 625L0 375Z"  horiz-adv-x="500" vert-adv-y="1000"  />

      
      <glyph glyph-name="uni23" unicode="&#x23;" d="M625 125L625 250L500 250L500 375L625 375L625 500L500 500L500 625L375 625L375 500L250 500L250 625L125 625L125 500L0 500L0 375L125 375L125 250L0 250L0 125L125 125L125 0L250 0L250 125L375 125L375 0L500 0L500 125ZM375 250L250 250L250 375L375 375Z"  horiz-adv-x="750" vert-adv-y="1000"  />

      
      <glyph glyph-name="uni24" unicode="&#x24;" d="M625 0L625 375L375 375L375 500L625 500L625 625L375 625L375 750L250 750L250 625L0 625L0 250L250 250L250 125L0 125L0 0L250 0L250-125L375-125L375 0ZM250 375L125 375L125 500L250 500ZM500 125L375 125L375 250L500 250Z"  horiz-adv-x="750" vert-adv-y="1000"  />

      
      <glyph glyph-name="uni25" unicode="&#x25;" d="M250 500L250 625L0 625L0 375L125 375L125 500ZM625 500L625 625L500 625L500 500L375 500L375 375L250 375L250 250L125 250L125 125L0 125L0 0L125 0L125 125L250 125L250 250L375 250L375 375L500 375L500 500ZM625 0L625 250L500 250L500 125L375 125L375 0Z"  horiz-adv-x="750" vert-adv-y="1000"  />

      
      <glyph glyph-name="uni26" unicode="&#x26;" d="M750 250L750 375L500 375L500 125L125 125L125 250L375 250L375 375L125 375L125 500L500 500L500 625L0 625L0 375L125 375L125 250L0 250L0 0L625 0L625 250Z"  horiz-adv-x="875" vert-adv-y="1000"  />

      
      <glyph glyph-name="uni2019" unicode="&#x2019;" d="M250 250L250 625L0 625L0 500L125 500L125 250Z"  horiz-adv-x="375" vert-adv-y="1000"  />

      
      <glyph glyph-name="uni28" unicode="&#x28;" d="M250-125L250 0L125 0L125 625L250 625L250 750L125 750L125 625L0 625L0 0L125 0L125-125Z"  horiz-adv-x="375" vert-adv-y="1000"  />

      
      <glyph glyph-name="uni29" unicode="&#x29;" d="M250 0L250 625L125 625L125 750L0 750L0 625L125 625L125 0L0 0L0-125L125-125L125 0Z"  horiz-adv-x="375" vert-adv-y="1000"  />

      
      <glyph glyph-name="uni2a" unicode="&#x2a;" d="M375 250L375 375L250 375L250 500L375 500L375 625L250 625L250 500L125 500L125 625L0 625L0 500L125 500L125 375L0 375L0 250L125 250L125 375L250 375L250 250Z"  horiz-adv-x="500" vert-adv-y="1000"  />

      
      <glyph glyph-name="uni2b" unicode="&#x2b;" d="M625 250L625 375L375 375L375 625L250 625L250 375L0 375L0 250L250 250L250 0L375 0L375 250Z"  horiz-adv-x="750" vert-adv-y="1000"  />

      
      <glyph glyph-name="uni2c" unicode="&#x2c;" d="M125-125L125 125L0 125L0-125Z"  horiz-adv-x="250" vert-adv-y="1000"  />

      
      <glyph glyph-name="uni2d" unicode="&#x2d;" d="M500 250L500 375L0 375L0 250Z"  horiz-adv-x="625" vert-adv-y="1000"  />

      
      <glyph glyph-name="uni2e" unicode="&#x2e;" d="M125 0L125 125L0 125L0 0Z"  horiz-adv-x="250" vert-adv-y="1000"  />

      
      <glyph glyph-name="uni2f" unicode="&#x2f;" d="M375 375L375 500L250 500L250 375L125 375L125 250L0 250L0 125L125 125L125 250L250 250L250 375Z"  horiz-adv-x="500" vert-adv-y="1000"  />

      
      <glyph glyph-name="uni30" unicode="&#x30;" d="M625 0L625 625L0 625L0 0ZM500 125L125 125L125 500L500 500Z"  horiz-adv-x="750" vert-adv-y="1000"  />

      
      <glyph glyph-name="uni31" unicode="&#x31;" d="M250 0L250 625L0 625L0 500L125 500L125 0Z"  horiz-adv-x="375" vert-adv-y="1000"  />

      
      <glyph glyph-name="uni32" unicode="&#x32;" d="M625 0L625 125L125 125L125 250L625 250L625 625L0 625L0 500L500 500L500 375L0 375L0 0Z"  horiz-adv-x="750" vert-adv-y="1000"  />

      
      <glyph glyph-name="uni33" unicode="&#x33;" d="M625 0L625 625L0 625L0 500L500 500L500 375L0 375L0 250L500 250L500 125L0 125L0 0Z"  horiz-adv-x="750" vert-adv-y="1000"  />

      
      <glyph glyph-name="uni34" unicode="&#x34;" d="M625 0L625 625L500 625L500 375L125 375L125 625L0 625L0 250L500 250L500 0Z"  horiz-adv-x="750" vert-adv-y="1000"  />

      
      <glyph glyph-name="uni35" unicode="&#x35;" d="M625 0L625 375L125 375L125 500L625 500L625 625L0 625L0 250L500 250L500 125L0 125L0 0Z"  horiz-adv-x="750" vert-adv-y="1000"  />

      
      <glyph glyph-name="uni36" unicode="&#x36;" d="M625 0L625 375L125 375L125 500L625 500L625 625L0 625L0 0ZM500 125L125 125L125 250L500 250Z"  horiz-adv-x="750" vert-adv-y="1000"  />

      
      <glyph glyph-name="uni37" unicode="&#x37;" d="M625 375L625 625L0 625L0 500L500 500L500 375L375 375L375 250L250 250L250 125L125 125L125 0L250 0L250 125L375 125L375 250L500 250L500 375Z"  horiz-adv-x="750" vert-adv-y="1000"  />

      
      <glyph glyph-name="uni38" unicode="&#x38;" d="M625 0L625 625L0 625L0 0ZM500 375L125 375L125 500L500 500ZM500 125L125 125L125 250L500 250Z"  horiz-adv-x="750" vert-adv-y="1000"  />

      
      <glyph glyph-name="uni39" unicode="&#x39;" d="M625 0L625 625L0 625L0 250L500 250L500 125L0 125L0 0ZM500 375L125 375L125 500L500 500Z"  horiz-adv-x="750" vert-adv-y="1000"  />

      
      <glyph glyph-name="uni3a" unicode="&#x3a;" d="M125 375L125 500L0 500L0 375ZM125 0L125 125L0 125L0 0Z"  horiz-adv-x="250" vert-adv-y="1000"  />

      
      <glyph glyph-name="uni3b" unicode="&#x3b;" d="M125 375L125 500L0 500L0 375ZM125-125L125 125L0 125L0-125Z"  horiz-adv-x="250" vert-adv-y="1000"  />

      
      <glyph glyph-name="uni3c" unicode="&#x3c;" d="M375 0L375 125L250 125L250 250L125 250L125 375L250 375L250 500L375 500L375 625L250 625L250 500L125 500L125 375L0 375L0 250L125 250L125 125L250 125L250 0Z"  horiz-adv-x="500" vert-adv-y="1000"  />

      
      <glyph glyph-name="uni3d" unicode="&#x3d;" d="M625 375L625 500L0 500L0 375ZM625 125L625 250L0 250L0 125Z"  horiz-adv-x="750" vert-adv-y="1000"  />

      
      <glyph glyph-name="uni3e" unicode="&#x3e;" d="M375 250L375 375L250 375L250 500L125 500L125 625L0 625L0 500L125 500L125 375L250 375L250 250L125 250L125 125L0 125L0 0L125 0L125 125L250 125L250 250Z"  horiz-adv-x="500" vert-adv-y="1000"  />

      
      <glyph glyph-name="uni3f" unicode="&#x3f;" d="M625 250L625 625L0 625L0 500L500 500L500 375L125 375L125 250ZM250 0L250 125L125 125L125 0Z"  horiz-adv-x="750" vert-adv-y="1000"  />

      
      <glyph glyph-name="uni40" unicode="&#x40;" d="M625 0L625 625L125 625L125 500L500 500L500 125L375 125L375 375L0 375L0 0ZM250 125L125 125L125 250L250 250Z"  horiz-adv-x="750" vert-adv-y="1000"  />

      
      <glyph glyph-name="uni41" unicode="&#x41;" d="M625 0L625 625L0 625L0 0L125 0L125 250L500 250L500 0ZM500 375L125 375L125 500L500 500Z"  horiz-adv-x="750" vert-adv-y="1000"  />

      
      <glyph glyph-name="uni42" unicode="&#x42;" d="M625 0L625 250L500 250L500 375L625 375L625 625L0 625L0 0ZM500 375L125 375L125 500L500 500ZM500 125L125 125L125 250L500 250Z"  horiz-adv-x="750" vert-adv-y="1000"  />

      
      <glyph glyph-name="uni43" unicode="&#x43;" d="M625 0L625 250L500 250L500 125L125 125L125 500L500 500L500 375L625 375L625 625L0 625L0 0Z"  horiz-adv-x="750" vert-adv-y="1000"  />

      
      <glyph glyph-name="uni44" unicode="&#x44;" d="M625 125L625 500L500 500L500 625L0 625L0 0L500 0L500 125ZM500 125L125 125L125 500L500 500Z"  horiz-adv-x="750" vert-adv-y="1000"  />

      
      <glyph glyph-name="uni45" unicode="&#x45;" d="M625 0L625 125L125 125L125 250L625 250L625 375L125 375L125 500L625 500L625 625L0 625L0 0Z"  horiz-adv-x="750" vert-adv-y="1000"  />

      
      <glyph glyph-name="uni46" unicode="&#x46;" d="M625 250L625 375L125 375L125 500L625 500L625 625L0 625L0 0L125 0L125 250Z"  horiz-adv-x="750" vert-adv-y="1000"  />

      
      <glyph glyph-name="uni47" unicode="&#x47;" d="M625 0L625 375L250 375L250 250L500 250L500 125L125 125L125 500L625 500L625 625L0 625L0 0Z"  horiz-adv-x="750" vert-adv-y="1000"  />

      
      <glyph glyph-name="uni48" unicode="&#x48;" d="M625 0L625 625L500 625L500 375L125 375L125 625L0 625L0 0L125 0L125 250L500 250L500 0Z"  horiz-adv-x="750" vert-adv-y="1000"  />

      
      <glyph glyph-name="uni49" unicode="&#x49;" d="M125 0L125 625L0 625L0 0Z"  horiz-adv-x="250" vert-adv-y="1000"  />

      
      <glyph glyph-name="uni4a" unicode="&#x4a;" d="M625 125L625 625L0 625L0 500L500 500L500 125L0 125L0 0L500 0L500 125Z"  horiz-adv-x="750" vert-adv-y="1000"  />

      
      <glyph glyph-name="uni4b" unicode="&#x4b;" d="M625 0L625 125L500 125L500 250L375 250L375 375L500 375L500 500L625 500L625 625L500 625L500 500L375 500L375 375L125 375L125 625L0 625L0 0L125 0L125 250L375 250L375 125L500 125L500 0Z"  horiz-adv-x="750" vert-adv-y="1000"  />

      
      <glyph glyph-name="uni4c" unicode="&#x4c;" d="M625 0L625 125L125 125L125 625L0 625L0 0Z"  horiz-adv-x="750" vert-adv-y="1000"  />

      
      <glyph glyph-name="uni4d" unicode="&#x4d;" d="M625 0L625 625L375 625L375 500L250 500L250 625L0 625L0 0L125 0L125 500L250 500L250 250L375 250L375 500L500 500L500 0Z"  horiz-adv-x="750" vert-adv-y="1000"  />

      
      <glyph glyph-name="uni4e" unicode="&#x4e;" d="M625 0L625 625L0 625L0 0L125 0L125 500L500 500L500 0Z"  horiz-adv-x="750" vert-adv-y="1000"  />

      
      <glyph glyph-name="uni4f" unicode="&#x4f;" d="M625 0L625 625L0 625L0 0ZM500 125L125 125L125 500L500 500Z"  horiz-adv-x="750" vert-adv-y="1000"  />

      
      <glyph glyph-name="uni50" unicode="&#x50;" d="M625 250L625 625L0 625L0 0L125 0L125 250ZM500 375L125 375L125 500L500 500Z"  horiz-adv-x="750" vert-adv-y="1000"  />

      
      <glyph glyph-name="uni51" unicode="&#x51;" d="M750-125L750 0L625 0L625 625L0 625L0 0L625 0L625-125ZM500 125L125 125L125 500L500 500Z"  horiz-adv-x="750" vert-adv-y="1000"  />

      
      <glyph glyph-name="uni52" unicode="&#x52;" d="M625 0L625 250L500 250L500 375L625 375L625 625L0 625L0 0L125 0L125 250L500 250L500 0ZM500 375L125 375L125 500L500 500Z"  horiz-adv-x="750" vert-adv-y="1000"  />

      
      <glyph glyph-name="uni53" unicode="&#x53;" d="M625 0L625 375L125 375L125 500L625 500L625 625L0 625L0 250L500 250L500 125L0 125L0 0Z"  horiz-adv-x="750" vert-adv-y="1000"  />

      
      <glyph glyph-name="uni54" unicode="&#x54;" d="M625 500L625 625L0 625L0 500L250 500L250 0L375 0L375 500Z"  horiz-adv-x="750" vert-adv-y="1000"  />

      
      <glyph glyph-name="uni55" unicode="&#x55;" d="M625 0L625 625L500 625L500 125L125 125L125 625L0 625L0 0Z"  horiz-adv-x="750" vert-adv-y="1000"  />

      
      <glyph glyph-name="uni56" unicode="&#x56;" d="M625 250L625 625L500 625L500 250L375 250L375 125L250 125L250 250L125 250L125 625L0 625L0 250L125 250L125 125L250 125L250 0L375 0L375 125L500 125L500 250Z"  horiz-adv-x="750" vert-adv-y="1000"  />

      
      <glyph glyph-name="uni57" unicode="&#x57;" d="M625 250L625 625L500 625L500 250L375 250L375 625L250 625L250 250L125 250L125 625L0 625L0 250L125 250L125 0L250 0L250 250L375 250L375 0L500 0L500 250Z"  horiz-adv-x="750" vert-adv-y="1000"  />

      
      <glyph glyph-name="uni58" unicode="&#x58;" d="M625 0L625 125L500 125L500 250L375 250L375 375L500 375L500 500L625 500L625 625L500 625L500 500L375 500L375 375L250 375L250 500L125 500L125 625L0 625L0 500L125 500L125 375L250 375L250 250L125 250L125 125L0 125L0 0L125 0L125 125L250 125L250 250L375 250L375 125L500 125L500 0Z"  horiz-adv-x="750" vert-adv-y="1000"  />

      
      <glyph glyph-name="uni59" unicode="&#x59;" d="M625 0L625 625L500 625L500 375L125 375L125 625L0 625L0 250L500 250L500 125L0 125L0 0Z"  horiz-adv-x="750" vert-adv-y="1000"  />

      
      <glyph glyph-name="uni5a" unicode="&#x5a;" d="M625 0L625 125L250 125L250 250L375 250L375 375L500 375L500 500L625 500L625 625L0 625L0 500L375 500L375 375L250 375L250 250L125 250L125 125L0 125L0 0Z"  horiz-adv-x="750" vert-adv-y="1000"  />

      
      <glyph glyph-name="uni5b" unicode="&#x5b;" d="M250-125L250 0L125 0L125 625L250 625L250 750L0 750L0-125Z"  horiz-adv-x="375" vert-adv-y="1000"  />

      
      <glyph glyph-name="uni5c" unicode="&#x5c;" d="M375 125L375 250L250 250L250 375L125 375L125 500L0 500L0 375L125 375L125 250L250 250L250 125Z"  horiz-adv-x="500" vert-adv-y="1000"  />

      
      <glyph glyph-name="uni5d" unicode="&#x5d;" d="M250-125L250 750L0 750L0 625L125 625L125 0L0 0L0-125Z"  horiz-adv-x="375" vert-adv-y="1000"  />

      
      <glyph glyph-name="uni5e" unicode="&#x5e;" d="M625 250L625 375L500 375L500 500L375 500L375 625L250 625L250 500L125 500L125 375L0 375L0 250L125 250L125 375L250 375L250 500L375 500L375 375L500 375L500 250Z"  horiz-adv-x="750" vert-adv-y="1000"  />

      
      <glyph glyph-name="uni5f" unicode="&#x5f;" d="M625-125L625 0L0 0L0-125Z"  horiz-adv-x="750" vert-adv-y="1000"  />

      
      <glyph glyph-name="uni2018" unicode="&#x2018;" d="M250 250L250 375L125 375L125 625L0 625L0 250Z"  horiz-adv-x="375" vert-adv-y="1000"  />

      
      <glyph glyph-name="uni61" unicode="&#x61;" d="M625 0L625 625L0 625L0 500L500 500L500 375L0 375L0 0ZM500 125L125 125L125 250L500 250Z"  horiz-adv-x="750" vert-adv-y="1000"  />

      
      <glyph glyph-name="uni62" unicode="&#x62;" d="M625 0L625 375L125 375L125 625L0 625L0 0ZM500 125L125 125L125 250L500 250Z"  horiz-adv-x="750" vert-adv-y="1000"  />

      
      <glyph glyph-name="uni63" unicode="&#x63;" d="M625 0L625 250L500 250L500 125L125 125L125 500L500 500L500 375L625 375L625 625L0 625L0 0Z"  horiz-adv-x="750" vert-adv-y="1000"  />

      
      <glyph glyph-name="uni64" unicode="&#x64;" d="M625 0L625 625L500 625L500 375L0 375L0 0ZM500 125L125 125L125 250L500 250Z"  horiz-adv-x="750" vert-adv-y="1000"  />

      
      <glyph glyph-name="uni65" unicode="&#x65;" d="M625 0L625 125L125 125L125 250L625 250L625 625L0 625L0 0ZM500 375L125 375L125 500L500 500Z"  horiz-adv-x="750" vert-adv-y="1000"  />

      
      <glyph glyph-name="uni66" unicode="&#x66;" d="M375 250L375 375L125 375L125 500L375 500L375 625L0 625L0 0L125 0L125 250Z"  horiz-adv-x="500" vert-adv-y="1000"  />

      
      <glyph glyph-name="uni67" unicode="&#x67;" d="M625 0L625 625L0 625L0 250L500 250L500 125L0 125L0 0ZM500 375L125 375L125 500L500 500Z"  horiz-adv-x="750" vert-adv-y="1000"  />

      
      <glyph glyph-name="uni68" unicode="&#x68;" d="M625 0L625 375L125 375L125 625L0 625L0 0L125 0L125 250L500 250L500 0Z"  horiz-adv-x="750" vert-adv-y="1000"  />

      
      <glyph glyph-name="uni69" unicode="&#x69;" d="M125 500L125 625L0 625L0 500ZM125 0L125 375L0 375L0 0Z"  horiz-adv-x="250" vert-adv-y="1000"  />

      
      <glyph glyph-name="uni6a" unicode="&#x6a;" d="M375 500L375 625L250 625L250 500ZM375 125L375 375L250 375L250 125L0 125L0 0L250 0L250 125Z"  horiz-adv-x="500" vert-adv-y="1000"  />

      
      <glyph glyph-name="uni6b" unicode="&#x6b;" d="M625 0L625 125L500 125L500 250L375 250L375 375L500 375L500 500L625 500L625 625L500 625L500 500L375 500L375 375L125 375L125 625L0 625L0 0L125 0L125 250L375 250L375 125L500 125L500 0Z"  horiz-adv-x="750" vert-adv-y="1000"  />

      
      <glyph glyph-name="uni6c" unicode="&#x6c;" d="M375 0L375 125L250 125L250 625L0 625L0 500L125 500L125 0Z"  horiz-adv-x="500" vert-adv-y="1000"  />

      
      <glyph glyph-name="uni6d" unicode="&#x6d;" d="M625 0L625 500L500 500L500 625L0 625L0 0L125 0L125 500L250 500L250 0L375 0L375 500L500 500L500 0Z"  horiz-adv-x="750" vert-adv-y="1000"  />

      
      <glyph glyph-name="uni6e" unicode="&#x6e;" d="M625 0L625 500L500 500L500 625L0 625L0 0L125 0L125 500L500 500L500 0Z"  horiz-adv-x="750" vert-adv-y="1000"  />

      
      <glyph glyph-name="uni6f" unicode="&#x6f;" d="M625 0L625 625L0 625L0 0ZM500 125L125 125L125 500L500 500Z"  horiz-adv-x="750" vert-adv-y="1000"  />

      
      <glyph glyph-name="uni70" unicode="&#x70;" d="M625 250L625 625L0 625L0 0L125 0L125 250ZM500 375L125 375L125 500L500 500Z"  horiz-adv-x="750" vert-adv-y="1000"  />

      
      <glyph glyph-name="uni71" unicode="&#x71;" d="M625 0L625 625L0 625L0 250L500 250L500 0ZM500 375L125 375L125 500L500 500Z"  horiz-adv-x="750" vert-adv-y="1000"  />

      
      <glyph glyph-name="uni72" unicode="&#x72;" d="M375 500L375 625L0 625L0 0L125 0L125 500Z"  horiz-adv-x="500" vert-adv-y="1000"  />

      
      <glyph glyph-name="uni73" unicode="&#x73;" d="M625 0L625 375L125 375L125 500L625 500L625 625L0 625L0 250L500 250L500 125L0 125L0 0Z"  horiz-adv-x="750" vert-adv-y="1000"  />

      
      <glyph glyph-name="uni74" unicode="&#x74;" d="M375 0L375 125L125 125L125 250L375 250L375 375L125 375L125 625L0 625L0 0Z"  horiz-adv-x="500" vert-adv-y="1000"  />

      
      <glyph glyph-name="uni75" unicode="&#x75;" d="M625 0L625 625L500 625L500 125L125 125L125 625L0 625L0 125L125 125L125 0Z"  horiz-adv-x="750" vert-adv-y="1000"  />

      
      <glyph glyph-name="uni76" unicode="&#x76;" d="M625 250L625 625L500 625L500 250L375 250L375 125L250 125L250 250L125 250L125 625L0 625L0 250L125 250L125 125L250 125L250 0L375 0L375 125L500 125L500 250Z"  horiz-adv-x="750" vert-adv-y="1000"  />

      
      <glyph glyph-name="uni77" unicode="&#x77;" d="M625 125L625 625L500 625L500 125L375 125L375 625L250 625L250 125L125 125L125 625L0 625L0 0L500 0L500 125Z"  horiz-adv-x="750" vert-adv-y="1000"  />

      
      <glyph glyph-name="uni78" unicode="&#x78;" d="M625 0L625 125L500 125L500 250L375 250L375 375L500 375L500 500L625 500L625 625L500 625L500 500L375 500L375 375L250 375L250 500L125 500L125 625L0 625L0 500L125 500L125 375L250 375L250 250L125 250L125 125L0 125L0 0L125 0L125 125L250 125L250 250L375 250L375 125L500 125L500 0Z"  horiz-adv-x="750" vert-adv-y="1000"  />

      
      <glyph glyph-name="uni79" unicode="&#x79;" d="M625 0L625 625L500 625L500 375L125 375L125 625L0 625L0 250L500 250L500 125L0 125L0 0Z"  horiz-adv-x="750" vert-adv-y="1000"  />

      
      <glyph glyph-name="uni7a" unicode="&#x7a;" d="M625 0L625 125L250 125L250 250L375 250L375 375L500 375L500 500L625 500L625 625L0 625L0 500L375 500L375 375L250 375L250 250L125 250L125 125L0 125L0 0Z"  horiz-adv-x="750" vert-adv-y="1000"  />

      
      <glyph glyph-name="uni7b" unicode="&#x7b;" d="M375-125L375 0L250 0L250 250L125 250L125 375L250 375L250 625L375 625L375 750L250 750L250 625L125 625L125 375L0 375L0 250L125 250L125 0L250 0L250-125Z"  horiz-adv-x="500" vert-adv-y="1000"  />

      
      <glyph glyph-name="uni7c" unicode="&#x7c;" d="M125-125L125 750L0 750L0-125Z"  horiz-adv-x="250" vert-adv-y="1000"  />

      
      <glyph glyph-name="uni7d" unicode="&#x7d;" d="M375 250L375 375L250 375L250 625L125 625L125 750L0 750L0 625L125 625L125 375L250 375L250 250L125 250L125 0L0 0L0-125L125-125L125 0L250 0L250 250Z"  horiz-adv-x="500" vert-adv-y="1000"  />

      
      <glyph glyph-name="uni7e" unicode="&#x7e;" d="M500 375L500 500L375 500L375 375L250 375L250 500L125 500L125 375L0 375L0 250L125 250L125 375L250 375L250 250L375 250L375 375Z"  horiz-adv-x="625" vert-adv-y="1000"  />

      
      <glyph glyph-name="unia1" unicode="&#xa1;" d="M125 500L125 625L0 625L0 500ZM125 0L125 375L0 375L0 0Z"  horiz-adv-x="250" vert-adv-y="1000"  />

      
      <glyph glyph-name="unia2" unicode="&#xa2;" d="M625 125L625 250L375 250L375 375L625 375L625 500L375 500L375 625L250 625L250 500L0 500L0 125L250 125L250 0L375 0L375 125ZM250 250L125 250L125 375L250 375Z"  horiz-adv-x="750" vert-adv-y="1000"  />

      
      <glyph glyph-name="unia3" unicode="&#xa3;" d="M625 0L625 250L500 250L500 125L250 125L250 250L375 250L375 375L250 375L250 500L500 500L500 625L125 625L125 375L0 375L0 250L125 250L125 125L0 125L0 0Z"  horiz-adv-x="750" vert-adv-y="1000"  />

      
      <glyph glyph-name="uni2044" unicode="&#x2044;" d="M625 500L625 625L500 625L500 500L375 500L375 375L250 375L250 250L125 250L125 125L0 125L0 0L125 0L125 125L250 125L250 250L375 250L375 375L500 375L500 500Z"  horiz-adv-x="750" vert-adv-y="1000"  />

      
      <glyph glyph-name="unia5" unicode="&#xa5;" d="M750 250L750 375L625 375L625 500L750 500L750 625L500 625L500 375L250 375L250 625L0 625L0 500L125 500L125 375L0 375L0 250L500 250L500 125L125 125L125 0L625 0L625 250Z"  horiz-adv-x="875" vert-adv-y="1000"  />

      
      <glyph glyph-name="uni0192" unicode="&#x0192;" d="M625 250L625 375L375 375L375 500L625 500L625 625L250 625L250 375L0 375L0 250L250 250L250 125L0 125L0 0L375 0L375 250Z"  horiz-adv-x="750" vert-adv-y="1000"  />

      
      <glyph glyph-name="unia7" unicode="&#xa7;" d="M625-125L625 500L125 500L125 625L625 625L625 750L0 750L0 125L500 125L500 0L0 0L0-125ZM500 250L125 250L125 375L500 375Z"  horiz-adv-x="750" vert-adv-y="1000"  />

      
      <glyph glyph-name="unia4" unicode="&#xa4;" d="M625 0L625 125L250 125L250 250L625 250L625 375L250 375L250 500L625 500L625 625L250 625L250 500L125 500L125 375L0 375L0 250L125 250L125 125L250 125L250 0Z"  horiz-adv-x="750" vert-adv-y="1000"  />

      
      <glyph glyph-name="uni27" unicode="&#x27;" d="M125 375L125 625L0 625L0 375Z"  horiz-adv-x="250" vert-adv-y="1000"  />

      
      <glyph glyph-name="uni201C" unicode="&#x201C;" d="M500 250L500 375L375 375L375 625L250 625L250 375L125 375L125 625L0 625L0 250Z"  horiz-adv-x="625" vert-adv-y="1000"  />

      
      <glyph glyph-name="uniab" unicode="&#xab;" d="M625 0L625 125L500 125L500 250L375 250L375 375L500 375L500 500L625 500L625 625L500 625L500 500L375 500L375 625L250 625L250 500L125 500L125 375L0 375L0 250L125 250L125 125L250 125L250 0L375 0L375 125L500 125L500 0ZM375 375L250 375L250 500L375 500ZM250 250L125 250L125 375L250 375ZM375 125L250 125L250 250L375 250Z"  horiz-adv-x="750" vert-adv-y="1000"  />

      
      <glyph glyph-name="uni2039" unicode="&#x2039;" d="M250 125L250 250L125 250L125 375L250 375L250 500L125 500L125 375L0 375L0 250L125 250L125 125Z"  horiz-adv-x="375" vert-adv-y="1000"  />

      
      <glyph glyph-name="uni203A" unicode="&#x203A;" d="M250 250L250 375L125 375L125 500L0 500L0 375L125 375L125 250L0 250L0 125L125 125L125 250Z"  horiz-adv-x="375" vert-adv-y="1000"  />

      
      <glyph glyph-name="uniFB01" unicode="&#xFB01;" d="M625 500L625 625L500 625L500 500ZM625 0L625 375L500 375L500 0ZM375 250L375 375L125 375L125 500L375 500L375 625L0 625L0 0L125 0L125 250Z"  horiz-adv-x="750" vert-adv-y="1000"  />

      
      <glyph glyph-name="uniFB02" unicode="&#xFB02;" d="M875 0L875 125L625 125L625 625L0 625L0 0L125 0L125 250L375 250L375 375L125 375L125 500L500 500L500 0Z"  horiz-adv-x="1000" vert-adv-y="1000"  />

      
      <glyph glyph-name="uni2013" unicode="&#x2013;" d="M500 250L500 375L0 375L0 250Z"  horiz-adv-x="625" vert-adv-y="1000"  />

      
      <glyph glyph-name="uni2020" unicode="&#x2020;" d="M625 375L625 500L375 500L375 625L250 625L250 500L0 500L0 375L250 375L250 125L375 125L375 375Z"  horiz-adv-x="750" vert-adv-y="1000"  />

      
      <glyph glyph-name="uni2021" unicode="&#x2021;" d="M625 125L625 250L375 250L375 375L625 375L625 500L375 500L375 625L250 625L250 500L0 500L0 375L250 375L250 250L0 250L0 125L250 125L250 0L375 0L375 125Z"  horiz-adv-x="750" vert-adv-y="1000"  />

      
      <glyph glyph-name="unib7" unicode="&#xb7;" d="M125 250L125 375L0 375L0 250Z"  horiz-adv-x="250" vert-adv-y="1000"  />

      
      <glyph glyph-name="unib6" unicode="&#xb6;" d="M625 0L625 625L0 625L0 250L250 250L250 0L375 0L375 250L500 250L500 0ZM500 375L375 375L375 500L500 500ZM250 375L125 375L125 500L250 500Z"  horiz-adv-x="750" vert-adv-y="1000"  />

      
      <glyph glyph-name="uni2022" unicode="&#x2022;" d="M250 125L250 375L0 375L0 125Z"  horiz-adv-x="375" vert-adv-y="1000"  />

      
      <glyph glyph-name="uni201A" unicode="&#x201A;" d="M250-125L250 250L0 250L0 125L125 125L125-125Z"  horiz-adv-x="375" vert-adv-y="1000"  />

      
      <glyph glyph-name="uni201E" unicode="&#x201E;" d="M500-125L500 250L250 250L0 250L0 125L125 125L125-125L250-125L250 125L375 125L375-125Z"  horiz-adv-x="625" vert-adv-y="1000"  />

      
      <glyph glyph-name="uni201D" unicode="&#x201D;" d="M500 250L500 625L0 625L0 500L125 500L125 250L250 250L250 500L375 500L375 250Z"  horiz-adv-x="625" vert-adv-y="1000"  />

      
      <glyph glyph-name="unibb" unicode="&#xbb;" d="M625 250L625 375L500 375L500 500L375 500L375 625L250 625L250 500L125 500L125 625L0 625L0 500L125 500L125 375L250 375L250 250L125 250L125 125L0 125L0 0L125 0L125 125L250 125L250 0L375 0L375 125L500 125L500 250ZM375 375L250 375L250 500L375 500ZM500 250L375 250L375 375L500 375ZM375 125L250 125L250 250L375 250Z"  horiz-adv-x="750" vert-adv-y="1000"  />

      
      <glyph glyph-name="uni2026" unicode="&#x2026;" d="M625 0L625 125L500 125L500 0ZM375 0L375 125L250 125L250 0ZM125 0L125 125L0 125L0 0Z"  horiz-adv-x="750" vert-adv-y="1000"  />

      
      <glyph glyph-name="uni2030" unicode="&#x2030;" d="M875 0L875 250L750 250L750 125L625 125L625 250L500 250L500 125L375 125L375 0ZM250 500L250 625L0 625L0 375L125 375L125 500ZM625 500L625 625L500 625L500 500L375 500L375 375L250 375L250 250L125 250L125 125L0 125L0 0L125 0L125 125L250 125L250 250L375 250L375 375L500 375L500 500Z"  horiz-adv-x="1000" vert-adv-y="1000"  />

      
      <glyph glyph-name="unibf" unicode="&#xbf;" d="M500 500L500 625L375 625L375 500ZM625 0L625 125L125 125L125 250L500 250L500 375L0 375L0 0Z"  horiz-adv-x="750" vert-adv-y="1000"  />

      
      <glyph glyph-name="uni60" unicode="&#x60;" d="M250 750L250 875L125 875L125 1000L0 1000L0 875L125 875L125 750Z"  horiz-adv-x="375" vert-adv-y="1000"  />

      
      <glyph glyph-name="unib4" unicode="&#xb4;" d="M250 875L250 1000L125 1000L125 875L0 875L0 750L125 750L125 875Z"  horiz-adv-x="375" vert-adv-y="1000"  />

      
      <glyph glyph-name="uni02C6" unicode="&#x02C6;" d="M375 750L375 875L250 875L250 1000L125 1000L125 875L0 875L0 750L125 750L125 875L250 875L250 750Z"  horiz-adv-x="500" vert-adv-y="1000"  />

      
      <glyph glyph-name="uni02DC" unicode="&#x02DC;" d="M625 875L625 1000L500 1000L500 875L375 875L375 1000L125 1000L125 875L0 875L0 750L125 750L125 875L375 875L375 750L500 750L500 875Z"  horiz-adv-x="750" vert-adv-y="1000"  />

      
      <glyph glyph-name="uniaf" unicode="&#xaf;" d="M375 750L375 875L0 875L0 750Z"  horiz-adv-x="500" vert-adv-y="1000"  />

      
      <glyph glyph-name="uni02D8" unicode="&#x02D8;" d="M375 750L375 1000L250 1000L250 875L125 875L125 1000L0 1000L0 750Z"  horiz-adv-x="500" vert-adv-y="1000"  />

      
      <glyph glyph-name="uni02D9" unicode="&#x02D9;" d="M125 750L125 875L0 875L0 750Z"  horiz-adv-x="250" vert-adv-y="1000"  />

      
      <glyph glyph-name="unia8" unicode="&#xa8;" d="M625 750L625 875L500 875L500 750ZM125 750L125 875L0 875L0 750Z"  horiz-adv-x="750" vert-adv-y="1000"  />

      
      <glyph glyph-name="uni02DA" unicode="&#x02DA;" d="M375 750L375 875L250 875L250 1000L125 1000L125 875L0 875L0 750L125 750L125 625L250 625L250 750ZM250 750L125 750L125 875L250 875Z"  horiz-adv-x="500" vert-adv-y="1000"  />

      
      <glyph glyph-name="unib8" unicode="&#xb8;" d="M125-125L125 0L0 0L0-125Z"  horiz-adv-x="250" vert-adv-y="1000"  />

      
      <glyph glyph-name="uni02DD" unicode="&#x02DD;" d="M625 875L625 1000L500 1000L500 875L375 875L375 750L500 750L500 875ZM250 875L250 1000L125 1000L125 875L0 875L0 750L125 750L125 875Z"  horiz-adv-x="750" vert-adv-y="1000"  />

      
      <glyph glyph-name="uni02DB" unicode="&#x02DB;" d="M125-125L125 0L0 0L0-125Z"  horiz-adv-x="250" vert-adv-y="1000"  />

      
      <glyph glyph-name="uni02C7" unicode="&#x02C7;" d="M375 875L375 1000L250 1000L250 875L125 875L125 1000L0 1000L0 875L125 875L125 750L250 750L250 875Z"  horiz-adv-x="500" vert-adv-y="1000"  />

      
      <glyph glyph-name="uni2014" unicode="&#x2014;" d="M625 250L625 375L0 375L0 250Z"  horiz-adv-x="750" vert-adv-y="1000"  />

      
      <glyph glyph-name="unic6" unicode="&#xc6;" d="M875 0L875 125L500 125L500 250L875 250L875 375L500 375L500 500L875 500L875 625L0 625L0 0L125 0L125 250L375 250L375 0ZM375 375L125 375L125 500L375 500Z"  horiz-adv-x="1000" vert-adv-y="1000"  />

      
      <glyph glyph-name="uniaa" unicode="&#xaa;" d="M500 250L500 375L375 375L375 625L0 625L0 250ZM500 0L500 125L0 125L0 0ZM250 375L125 375L125 500L250 500Z"  horiz-adv-x="625" vert-adv-y="1000"  />

      
      <glyph glyph-name="uni0141" unicode="&#x0141;" d="M750 0L750 125L250 125L250 375L375 375L375 500L250 500L250 625L125 625L125 375L0 375L0 250L125 250L125 0Z"  horiz-adv-x="875" vert-adv-y="1000"  />

      
      <glyph glyph-name="unid8" unicode="&#xd8;" d="M750 625L750 750L625 750L625 625L500 625L500 500L375 500L375 625L0 625L0 250L125 250L125 125L0 125L0 0L-125 0L-125-125L0-125L0 0L125 0L125 125L250 125L250 0L625 0L625 375L500 375L500 500L625 500L625 625ZM375 375L250 375L250 250L125 250L125 500L375 500ZM500 125L250 125L250 250L375 250L375 375L500 375Z"  horiz-adv-x="750" vert-adv-y="1000"  />

      
      <glyph glyph-name="uni0152" unicode="&#x0152;" d="M875 0L875 125L500 125L500 250L875 250L875 375L500 375L500 500L875 500L875 625L0 625L0 0ZM375 125L125 125L125 500L375 500Z"  horiz-adv-x="1000" vert-adv-y="1000"  />

      
      <glyph glyph-name="uniba" unicode="&#xba;" d="M375 250L375 625L0 625L0 250ZM375 0L375 125L0 125L0 0ZM250 375L125 375L125 500L250 500Z"  horiz-adv-x="500" vert-adv-y="1000"  />

      
      <glyph glyph-name="unie6" unicode="&#xe6;" d="M875 0L875 125L500 125L500 250L875 250L875 625L0 625L0 500L375 500L375 375L0 375L0 0ZM750 375L500 375L500 500L750 500ZM375 125L125 125L125 250L375 250Z"  horiz-adv-x="1000" vert-adv-y="1000"  />

      
      <glyph glyph-name="uni0131" unicode="&#x0131;" d="M125 0L125 375L0 375L0 0Z"  horiz-adv-x="250" vert-adv-y="1000"  />

      
      <glyph glyph-name="uni0142" unicode="&#x0142;" d="M375 0L375 125L250 125L250 375L375 375L375 500L250 500L250 625L0 625L0 500L125 500L125 375L0 375L0 250L125 250L125 0Z"  horiz-adv-x="500" vert-adv-y="1000"  />

      
      <glyph glyph-name="unif8" unicode="&#xf8;" d="M750 625L750 750L625 750L625 625L500 625L500 500L375 500L375 625L0 625L0 250L125 250L125 125L0 125L0 0L-125 0L-125-125L0-125L0 0L125 0L125 125L250 125L250 0L625 0L625 375L500 375L500 500L625 500L625 625ZM375 375L250 375L250 250L125 250L125 500L375 500ZM500 125L250 125L250 250L375 250L375 375L500 375Z"  horiz-adv-x="750" vert-adv-y="1000"  />

      
      <glyph glyph-name="uni0153" unicode="&#x0153;" d="M875 0L875 125L500 125L500 250L875 250L875 625L0 625L0 0ZM750 375L500 375L500 500L750 500ZM375 125L125 125L125 500L375 500Z"  horiz-adv-x="1000" vert-adv-y="1000"  />

      
      <glyph glyph-name="unidf" unicode="&#xdf;" d="M625 125L625 250L500 250L500 375L625 375L625 625L0 625L0 0L125 0L125 500L500 500L500 375L250 375L250 250L500 250L500 125L250 125L250 0L500 0L500 125Z"  horiz-adv-x="750" vert-adv-y="1000"  />

      
      <glyph glyph-name="unid0" unicode="&#xd0;" d="M750 125L750 500L625 500L625 625L125 625L125 375L0 375L0 250L125 250L125 0L625 0L625 125ZM625 125L250 125L250 500L625 500Z"  horiz-adv-x="875" vert-adv-y="1000"  />

      
      <glyph glyph-name="unif0" unicode="&#xf0;" d="M750 375L750 500L625 500L625 625L250 625L250 500L500 500L500 375L0 375L0 0L625 0L625 375ZM500 125L125 125L125 250L500 250Z"  horiz-adv-x="875" vert-adv-y="1000"  />

      
      <glyph glyph-name="uni0160" unicode="&#x0160;" d="M500 875L500 1000L375 1000L375 875L250 875L250 1000L125 1000L125 875L250 875L250 750L375 750L375 875ZM625 0L625 375L125 375L125 500L625 500L625 625L0 625L0 250L500 250L500 125L0 125L0 0Z"  horiz-adv-x="750" vert-adv-y="1000"  />

      
      <glyph glyph-name="uni0161" unicode="&#x0161;" d="M500 875L500 1000L375 1000L375 875L250 875L250 1000L125 1000L125 875L250 875L250 750L375 750L375 875ZM625 0L625 375L125 375L125 500L625 500L625 625L0 625L0 250L500 250L500 125L0 125L0 0Z"  horiz-adv-x="750" vert-adv-y="1000"  />

      
      <glyph glyph-name="unidd" unicode="&#xdd;" d="M500 875L500 1000L375 1000L375 875L250 875L250 750L375 750L375 875ZM625 0L625 625L500 625L500 375L125 375L125 625L0 625L0 250L500 250L500 125L0 125L0 0Z"  horiz-adv-x="750" vert-adv-y="1000"  />

      
      <glyph glyph-name="unifd" unicode="&#xfd;" d="M500 875L500 1000L375 1000L375 875L250 875L250 750L375 750L375 875ZM625 0L625 625L500 625L500 375L125 375L125 625L0 625L0 250L500 250L500 125L0 125L0 0Z"  horiz-adv-x="750" vert-adv-y="1000"  />

      
      <glyph glyph-name="unide" unicode="&#xde;" d="M625 125L625 500L125 500L125 625L0 625L0 0L125 0L125 125ZM500 250L125 250L125 375L500 375Z"  horiz-adv-x="750" vert-adv-y="1000"  />

      
      <glyph glyph-name="unife" unicode="&#xfe;" d="M625 125L625 500L125 500L125 625L0 625L0 0L125 0L125 125ZM500 250L125 250L125 375L500 375Z"  horiz-adv-x="750" vert-adv-y="1000"  />

      
      <glyph glyph-name="uni017D" unicode="&#x017D;" d="M500 875L500 1000L375 1000L375 875L250 875L250 1000L125 1000L125 875L250 875L250 750L375 750L375 875ZM625 0L625 125L250 125L250 250L375 250L375 375L500 375L500 500L625 500L625 625L0 625L0 500L375 500L375 375L250 375L250 250L125 250L125 125L0 125L0 0Z"  horiz-adv-x="750" vert-adv-y="1000"  />

      
      <glyph glyph-name="uni017E" unicode="&#x017E;" d="M500 875L500 1000L375 1000L375 875L250 875L250 1000L125 1000L125 875L250 875L250 750L375 750L375 875ZM625 0L625 125L250 125L250 250L375 250L375 375L500 375L500 500L625 500L625 625L0 625L0 500L375 500L375 375L250 375L250 250L125 250L125 125L0 125L0 0Z"  horiz-adv-x="750" vert-adv-y="1000"  />

      
      <glyph glyph-name="unibd" unicode="&#xbd;" d="M1250 0L1250 125L1000 125L1000 250L1250 250L1250 625L875 625L875 500L1125 500L1125 375L875 375L875 0ZM750 375L750 625L625 625L625 375L500 375L500 250L375 250L375 0L500 0L500 250L625 250L625 375ZM250 0L250 625L0 625L0 500L125 500L125 0Z"  horiz-adv-x="1375" vert-adv-y="1000"  />

      
      <glyph glyph-name="unibc" unicode="&#xbc;" d="M1250 0L1250 625L1125 625L1125 375L1000 375L1000 625L875 625L875 250L1125 250L1125 0ZM750 375L750 625L625 625L625 375L500 375L500 250L375 250L375 0L500 0L500 250L625 250L625 375ZM250 0L250 625L0 625L0 500L125 500L125 0Z"  horiz-adv-x="1375" vert-adv-y="1000"  />

      
      <glyph glyph-name="unib9" unicode="&#xb9;" d="M250 0L250 625L0 625L0 500L125 500L125 0Z"  horiz-adv-x="375" vert-adv-y="1000"  />

      
      <glyph glyph-name="unibe" unicode="&#xbe;" d="M1375 0L1375 625L1250 625L1250 375L1125 375L1125 625L1000 625L1000 250L1250 250L1250 0ZM875 375L875 625L750 625L750 375L625 375L625 250L500 250L500 0L625 0L625 250L750 250L750 375ZM375 0L375 625L0 625L0 500L250 500L250 375L0 375L0 250L250 250L250 125L0 125L0 0Z"  horiz-adv-x="1500" vert-adv-y="1000"  />

      
      <glyph glyph-name="unib3" unicode="&#xb3;" d="M375 0L375 625L0 625L0 500L250 500L250 375L0 375L0 250L250 250L250 125L0 125L0 0Z"  horiz-adv-x="500" vert-adv-y="1000"  />

      
      <glyph glyph-name="unib2" unicode="&#xb2;" d="M375 0L375 125L125 125L125 250L375 250L375 625L0 625L0 500L250 500L250 375L0 375L0 0Z"  horiz-adv-x="500" vert-adv-y="1000"  />

      
      <glyph glyph-name="unia6" unicode="&#xa6;" d="M125 375L125 750L0 750L0 375ZM125-125L125 250L0 250L0-125Z"  horiz-adv-x="250" vert-adv-y="1000"  />

      
      <glyph glyph-name="uni2212" unicode="&#x2212;" d="M625 250L625 375L0 375L0 250Z"  horiz-adv-x="750" vert-adv-y="1000"  />

      
      <glyph glyph-name="unid7" unicode="&#xd7;" d="M625 0L625 125L500 125L500 250L375 250L375 375L500 375L500 500L625 500L625 625L500 625L500 500L375 500L375 375L250 375L250 500L125 500L125 625L0 625L0 500L125 500L125 375L250 375L250 250L125 250L125 125L0 125L0 0L125 0L125 125L250 125L250 250L375 250L375 125L500 125L500 0Z"  horiz-adv-x="750" vert-adv-y="1000"  />

      
      <glyph glyph-name="unic4" unicode="&#xc4;" d="M625 750L625 875L500 875L500 750ZM125 750L125 875L0 875L0 750ZM625 0L625 625L0 625L0 0L125 0L125 250L500 250L500 0ZM500 375L125 375L125 500L500 500Z"  horiz-adv-x="750" vert-adv-y="1000"  />

      
      <glyph glyph-name="unic5" unicode="&#xc5;" d="M625 0L625 625L375 625L375 750L500 750L500 875L375 875L375 1000L250 1000L250 875L125 875L125 750L250 750L250 625L0 625L0 0L125 0L125 250L500 250L500 0ZM375 750L250 750L250 875L375 875ZM500 375L125 375L125 500L500 500Z"  horiz-adv-x="750" vert-adv-y="1000"  />

      
      <glyph glyph-name="unic7" unicode="&#xc7;" d="M625 0L625 250L500 250L500 125L125 125L125 500L500 500L500 375L625 375L625 625L0 625L0 0L250 0L250-125L375-125L375 0Z"  horiz-adv-x="750" vert-adv-y="1000"  />

      
      <glyph glyph-name="unic9" unicode="&#xc9;" d="M500 875L500 1000L375 1000L375 875L250 875L250 750L375 750L375 875ZM625 0L625 125L125 125L125 250L625 250L625 375L125 375L125 500L625 500L625 625L0 625L0 0Z"  horiz-adv-x="750" vert-adv-y="1000"  />

      
      <glyph glyph-name="unid1" unicode="&#xd1;" d="M625 875L625 1000L500 1000L500 875L375 875L375 1000L125 1000L125 875L0 875L0 750L125 750L125 875L375 875L375 750L500 750L500 875ZM625 0L625 625L0 625L0 0L125 0L125 500L500 500L500 0Z"  horiz-adv-x="750" vert-adv-y="1000"  />

      
      <glyph glyph-name="unid6" unicode="&#xd6;" d="M625 750L625 875L500 875L500 750ZM125 750L125 875L0 875L0 750ZM625 0L625 625L0 625L0 0ZM500 125L125 125L125 500L500 500Z"  horiz-adv-x="750" vert-adv-y="1000"  />

      
      <glyph glyph-name="unidc" unicode="&#xdc;" d="M625 750L625 875L500 875L500 750ZM125 750L125 875L0 875L0 750ZM625 0L625 625L500 625L500 125L125 125L125 625L0 625L0 0Z"  horiz-adv-x="750" vert-adv-y="1000"  />

      
      <glyph glyph-name="unie1" unicode="&#xe1;" d="M500 875L500 1000L375 1000L375 875L250 875L250 750L375 750L375 875ZM625 0L625 625L0 625L0 500L500 500L500 375L0 375L0 0ZM500 125L125 125L125 250L500 250Z"  horiz-adv-x="750" vert-adv-y="1000"  />

      
      <glyph glyph-name="unie0" unicode="&#xe0;" d="M375 750L375 875L250 875L250 1000L125 1000L125 875L250 875L250 750ZM625 0L625 625L0 625L0 500L500 500L500 375L0 375L0 0ZM500 125L125 125L125 250L500 250Z"  horiz-adv-x="750" vert-adv-y="1000"  />

      
      <glyph glyph-name="unie2" unicode="&#xe2;" d="M500 750L500 875L375 875L375 1000L250 1000L250 875L125 875L125 750L250 750L250 875L375 875L375 750ZM625 0L625 625L0 625L0 500L500 500L500 375L0 375L0 0ZM500 125L125 125L125 250L500 250Z"  horiz-adv-x="750" vert-adv-y="1000"  />

      
      <glyph glyph-name="unie4" unicode="&#xe4;" d="M625 750L625 875L500 875L500 750ZM125 750L125 875L0 875L0 750ZM625 0L625 625L0 625L0 500L500 500L500 375L0 375L0 0ZM500 125L125 125L125 250L500 250Z"  horiz-adv-x="750" vert-adv-y="1000"  />

      
      <glyph glyph-name="unie3" unicode="&#xe3;" d="M625 875L625 1000L500 1000L500 875L375 875L375 1000L125 1000L125 875L0 875L0 750L125 750L125 875L375 875L375 750L500 750L500 875ZM625 0L625 625L0 625L0 500L500 500L500 375L0 375L0 0ZM500 125L125 125L125 250L500 250Z"  horiz-adv-x="750" vert-adv-y="1000"  />

      
      <glyph glyph-name="unie5" unicode="&#xe5;" d="M625 0L625 625L375 625L375 750L500 750L500 875L375 875L375 1000L250 1000L250 875L125 875L125 750L250 750L250 625L0 625L0 500L500 500L500 375L0 375L0 0ZM375 750L250 750L250 875L375 875ZM500 125L125 125L125 250L500 250Z"  horiz-adv-x="750" vert-adv-y="1000"  />

      
      <glyph glyph-name="unie7" unicode="&#xe7;" d="M625 0L625 250L500 250L500 125L125 125L125 500L500 500L500 375L625 375L625 625L0 625L0 0L250 0L250-125L375-125L375 0Z"  horiz-adv-x="750" vert-adv-y="1000"  />

      
      <glyph glyph-name="unie9" unicode="&#xe9;" d="M500 875L500 1000L375 1000L375 875L250 875L250 750L375 750L375 875ZM625 0L625 125L125 125L125 250L625 250L625 625L0 625L0 0ZM500 375L125 375L125 500L500 500Z"  horiz-adv-x="750" vert-adv-y="1000"  />

      
      <glyph glyph-name="unie8" unicode="&#xe8;" d="M375 750L375 875L250 875L250 1000L125 1000L125 875L250 875L250 750ZM625 0L625 125L125 125L125 250L625 250L625 625L0 625L0 0ZM500 375L125 375L125 500L500 500Z"  horiz-adv-x="750" vert-adv-y="1000"  />

      
      <glyph glyph-name="uniea" unicode="&#xea;" d="M500 750L500 875L375 875L375 1000L250 1000L250 875L125 875L125 750L250 750L250 875L375 875L375 750ZM625 0L625 125L125 125L125 250L625 250L625 625L0 625L0 0ZM500 375L125 375L125 500L500 500Z"  horiz-adv-x="750" vert-adv-y="1000"  />

      
      <glyph glyph-name="unieb" unicode="&#xeb;" d="M625 750L625 875L500 875L500 750ZM125 750L125 875L0 875L0 750ZM625 0L625 125L125 125L125 250L625 250L625 625L0 625L0 0ZM500 375L125 375L125 500L500 500Z"  horiz-adv-x="750" vert-adv-y="1000"  />

      
      <glyph glyph-name="unied" unicode="&#xed;" d="M250 625L250 750L125 750L125 625L0 625L0 500L125 500L125 625ZM125 0L125 375L0 375L0 0Z"  horiz-adv-x="250" vert-adv-y="1000"  />

      
      <glyph glyph-name="uniec" unicode="&#xec;" d="M125 500L125 625L0 625L0 750L-125 750L-125 625L0 625L0 500ZM125 0L125 375L0 375L0 0Z"  horiz-adv-x="250" vert-adv-y="1000"  />

      
      <glyph glyph-name="uniee" unicode="&#xee;" d="M375 500L375 625L250 625L250 750L125 750L125 625L0 625L0 500L125 500L125 625L250 625L250 500ZM250 0L250 375L125 375L125 0Z"  horiz-adv-x="500" vert-adv-y="1000"  />

      
      <glyph glyph-name="unief" unicode="&#xef;" d="M375 500L375 625L250 625L250 500ZM125 500L125 625L0 625L0 500ZM250 0L250 375L125 375L125 0Z"  horiz-adv-x="500" vert-adv-y="1000"  />

      
      <glyph glyph-name="unif1" unicode="&#xf1;" d="M625 875L625 1000L500 1000L500 875L375 875L375 1000L125 1000L125 875L0 875L0 750L125 750L125 875L375 875L375 750L500 750L500 875ZM625 0L625 500L500 500L500 625L0 625L0 0L125 0L125 500L500 500L500 0Z"  horiz-adv-x="750" vert-adv-y="1000"  />

      
      <glyph glyph-name="unif3" unicode="&#xf3;" d="M500 875L500 1000L375 1000L375 875L250 875L250 750L375 750L375 875ZM625 0L625 625L0 625L0 0ZM500 125L125 125L125 500L500 500Z"  horiz-adv-x="750" vert-adv-y="1000"  />

      
      <glyph glyph-name="unif2" unicode="&#xf2;" d="M375 750L375 875L250 875L250 1000L125 1000L125 875L250 875L250 750ZM625 0L625 625L0 625L0 0ZM500 125L125 125L125 500L500 500Z"  horiz-adv-x="750" vert-adv-y="1000"  />

      
      <glyph glyph-name="unif4" unicode="&#xf4;" d="M500 750L500 875L375 875L375 1000L250 1000L250 875L125 875L125 750L250 750L250 875L375 875L375 750ZM625 0L625 625L0 625L0 0ZM500 125L125 125L125 500L500 500Z"  horiz-adv-x="750" vert-adv-y="1000"  />

      
      <glyph glyph-name="unif6" unicode="&#xf6;" d="M625 750L625 875L500 875L500 750ZM125 750L125 875L0 875L0 750ZM625 0L625 625L0 625L0 0ZM500 125L125 125L125 500L500 500Z"  horiz-adv-x="750" vert-adv-y="1000"  />

      
      <glyph glyph-name="unif5" unicode="&#xf5;" d="M625 875L625 1000L500 1000L500 875L375 875L375 1000L125 1000L125 875L0 875L0 750L125 750L125 875L375 875L375 750L500 750L500 875ZM625 0L625 625L0 625L0 0ZM500 125L125 125L125 500L500 500Z"  horiz-adv-x="750" vert-adv-y="1000"  />

      
      <glyph glyph-name="unifa" unicode="&#xfa;" d="M500 875L500 1000L375 1000L375 875L250 875L250 750L375 750L375 875ZM625 0L625 625L500 625L500 125L125 125L125 625L0 625L0 125L125 125L125 0Z"  horiz-adv-x="750" vert-adv-y="1000"  />

      
      <glyph glyph-name="unif9" unicode="&#xf9;" d="M375 750L375 875L250 875L250 1000L125 1000L125 875L250 875L250 750ZM625 0L625 625L500 625L500 125L125 125L125 625L0 625L0 125L125 125L125 0Z"  horiz-adv-x="750" vert-adv-y="1000"  />

      
      <glyph glyph-name="unifb" unicode="&#xfb;" d="M500 750L500 875L375 875L375 1000L250 1000L250 875L125 875L125 750L250 750L250 875L375 875L375 750ZM625 0L625 625L500 625L500 125L125 125L125 625L0 625L0 125L125 125L125 0Z"  horiz-adv-x="750" vert-adv-y="1000"  />

      
      <glyph glyph-name="unifc" unicode="&#xfc;" d="M625 750L625 875L500 875L500 750ZM125 750L125 875L0 875L0 750ZM625 0L625 625L500 625L500 125L125 125L125 625L0 625L0 125L125 125L125 0Z"  horiz-adv-x="750" vert-adv-y="1000"  />

      
      <glyph glyph-name="unib0" unicode="&#xb0;" d="M375 250L375 625L0 625L0 250ZM250 375L125 375L125 500L250 500Z"  horiz-adv-x="500" vert-adv-y="1000"  />

      
      <glyph glyph-name="uniae" unicode="&#xae;" d="M750 0L750 625L500 625L500 500L250 500L250 625L0 625L0 0L250 0L250 125L375 125L375 375L500 375L500 500L625 500L625 125L500 125L500 0ZM250 125L125 125L125 500L250 500Z"  horiz-adv-x="875" vert-adv-y="1000"  />

      
      <glyph glyph-name="unia9" unicode="&#xa9;" d="M750 0L750 625L500 625L500 500L250 500L250 625L0 625L0 0L250 0L250 125L500 125L500 0ZM625 125L500 125L500 250L375 250L375 375L500 375L500 500L625 500ZM250 125L125 125L125 500L250 500Z"  horiz-adv-x="875" vert-adv-y="1000"  />

      
      <glyph glyph-name="uni2122" unicode="&#x2122;" d="M1125 250L1125 625L500 625L500 250L625 250L625 500L750 500L750 250L875 250L875 500L1000 500L1000 250ZM375 500L375 625L0 625L0 500L125 500L125 250L250 250L250 500Z"  horiz-adv-x="1250" vert-adv-y="1000"  />

      
      <glyph glyph-name="unib1" unicode="&#xb1;" d="M375 375L375 500L250 500L250 625L125 625L125 500L0 500L0 375L125 375L125 250L250 250L250 375ZM375 0L375 125L0 125L0 0Z"  horiz-adv-x="500" vert-adv-y="1000"  />

      
      <glyph glyph-name="unib5" unicode="&#xb5;" d="M625 0L625 625L500 625L500 125L125 125L125 625L0 625L0-125L125-125L125 0Z"  horiz-adv-x="750" vert-adv-y="1000"  />

      
      <glyph glyph-name="uniac" unicode="&#xac;" d="M500 125L500 375L0 375L0 250L375 250L375 125Z"  horiz-adv-x="625" vert-adv-y="1000"  />

      
      <glyph glyph-name="unic0" unicode="&#xc0;" d="M375 750L375 875L250 875L250 1000L125 1000L125 875L250 875L250 750ZM625 0L625 625L0 625L0 0L125 0L125 250L500 250L500 0ZM500 375L125 375L125 500L500 500Z"  horiz-adv-x="750" vert-adv-y="1000"  />

      
      <glyph glyph-name="unic3" unicode="&#xc3;" d="M625 875L625 1000L500 1000L500 875L375 875L375 1000L125 1000L125 875L0 875L0 750L125 750L125 875L375 875L375 750L500 750L500 875ZM625 0L625 625L0 625L0 0L125 0L125 250L500 250L500 0ZM500 375L125 375L125 500L500 500Z"  horiz-adv-x="750" vert-adv-y="1000"  />

      
      <glyph glyph-name="unid5" unicode="&#xd5;" d="M625 875L625 1000L500 1000L500 875L375 875L375 1000L125 1000L125 875L0 875L0 750L125 750L125 875L375 875L375 750L500 750L500 875ZM625 0L625 625L0 625L0 0ZM500 125L125 125L125 500L500 500Z"  horiz-adv-x="750" vert-adv-y="1000"  />

      
      <glyph glyph-name="unif7" unicode="&#xf7;" d="M375 500L375 625L250 625L250 500ZM625 250L625 375L0 375L0 250ZM375 0L375 125L250 125L250 0Z"  horiz-adv-x="750" vert-adv-y="1000"  />

      
      <glyph glyph-name="uniff" unicode="&#xff;" d="M625 750L625 875L500 875L500 750ZM125 750L125 875L0 875L0 750ZM625 0L625 625L500 625L500 375L125 375L125 625L0 625L0 250L500 250L500 125L0 125L0 0Z"  horiz-adv-x="750" vert-adv-y="1000"  />

      
      <glyph glyph-name="uni0178" unicode="&#x0178;" d="M625 750L625 875L500 875L500 750ZM125 750L125 875L0 875L0 750ZM625 0L625 625L500 625L500 375L125 375L125 625L0 625L0 250L500 250L500 125L0 125L0 0Z"  horiz-adv-x="750" vert-adv-y="1000"  />

      
      <glyph glyph-name="unic2" unicode="&#xc2;" d="M500 750L500 875L375 875L375 1000L250 1000L250 875L125 875L125 750L250 750L250 875L375 875L375 750ZM625 0L625 625L0 625L0 0L125 0L125 250L500 250L500 0ZM500 375L125 375L125 500L500 500Z"  horiz-adv-x="750" vert-adv-y="1000"  />

      
      <glyph glyph-name="unica" unicode="&#xca;" d="M500 750L500 875L375 875L375 1000L250 1000L250 875L125 875L125 750L250 750L250 875L375 875L375 750ZM625 0L625 125L125 125L125 250L625 250L625 375L125 375L125 500L625 500L625 625L0 625L0 0Z"  horiz-adv-x="750" vert-adv-y="1000"  />

      
      <glyph glyph-name="unic1" unicode="&#xc1;" d="M500 875L500 1000L375 1000L375 875L250 875L250 750L375 750L375 875ZM625 0L625 625L0 625L0 0L125 0L125 250L500 250L500 0ZM500 375L125 375L125 500L500 500Z"  horiz-adv-x="750" vert-adv-y="1000"  />

      
      <glyph glyph-name="unicb" unicode="&#xcb;" d="M625 750L625 875L500 875L500 750ZM125 750L125 875L0 875L0 750ZM625 0L625 125L125 125L125 250L625 250L625 375L125 375L125 500L625 500L625 625L0 625L0 0Z"  horiz-adv-x="750" vert-adv-y="1000"  />

      
      <glyph glyph-name="unic8" unicode="&#xc8;" d="M375 750L375 875L250 875L250 1000L125 1000L125 875L250 875L250 750ZM625 0L625 125L125 125L125 250L625 250L625 375L125 375L125 500L625 500L625 625L0 625L0 0Z"  horiz-adv-x="750" vert-adv-y="1000"  />

      
      <glyph glyph-name="unicd" unicode="&#xcd;" d="M250 875L250 1000L125 1000L125 875L0 875L0 750L125 750L125 875ZM125 0L125 625L0 625L0 0Z"  horiz-adv-x="250" vert-adv-y="1000"  />

      
      <glyph glyph-name="unice" unicode="&#xce;" d="M250 750L250 875L125 875L125 1000L0 1000L0 875L-125 875L-125 750L0 750L0 875L125 875L125 750ZM125 0L125 625L0 625L0 0Z"  horiz-adv-x="250" vert-adv-y="1000"  />

      
      <glyph glyph-name="unicf" unicode="&#xcf;" d="M250 750L250 875L125 875L125 750ZM0 750L0 875L-125 875L-125 750ZM125 0L125 625L0 625L0 0Z"  horiz-adv-x="250" vert-adv-y="1000"  />

      
      <glyph glyph-name="unicc" unicode="&#xcc;" d="M125 750L125 875L0 875L0 1000L-125 1000L-125 875L0 875L0 750ZM125 0L125 625L0 625L0 0Z"  horiz-adv-x="250" vert-adv-y="1000"  />

      
      <glyph glyph-name="unid3" unicode="&#xd3;" d="M500 875L500 1000L375 1000L375 875L250 875L250 750L375 750L375 875ZM625 0L625 625L0 625L0 0ZM500 125L125 125L125 500L500 500Z"  horiz-adv-x="750" vert-adv-y="1000"  />

      
      <glyph glyph-name="unid4" unicode="&#xd4;" d="M500 750L500 875L375 875L375 1000L250 1000L250 875L125 875L125 750L250 750L250 875L375 875L375 750ZM625 0L625 625L0 625L0 0ZM500 125L125 125L125 500L500 500Z"  horiz-adv-x="750" vert-adv-y="1000"  />

      
      <glyph glyph-name="unid2" unicode="&#xd2;" d="M375 750L375 875L250 875L250 1000L125 1000L125 875L250 875L250 750ZM625 0L625 625L0 625L0 0ZM500 125L125 125L125 500L500 500Z"  horiz-adv-x="750" vert-adv-y="1000"  />

      
      <glyph glyph-name="unida" unicode="&#xda;" d="M500 875L500 1000L375 1000L375 875L250 875L250 750L375 750L375 875ZM625 0L625 625L500 625L500 125L125 125L125 625L0 625L0 0Z"  horiz-adv-x="750" vert-adv-y="1000"  />

      
      <glyph glyph-name="unidb" unicode="&#xdb;" d="M500 750L500 875L375 875L375 1000L250 1000L250 875L125 875L125 750L250 750L250 875L375 875L375 750ZM625 0L625 625L500 625L500 125L125 125L125 625L0 625L0 0Z"  horiz-adv-x="750" vert-adv-y="1000"  />

      
      <glyph glyph-name="unid9" unicode="&#xd9;" d="M375 750L375 875L250 875L250 1000L125 1000L125 875L250 875L250 750ZM625 0L625 625L500 625L500 125L125 125L125 625L0 625L0 0Z"  horiz-adv-x="750" vert-adv-y="1000"  />

      

  </font>
</defs>
</svg>
